<svg class="animated" id="freepik_stories-firmware" xmlns="http://www.w3.org/2000/svg" xmlns:xlink="http://www.w3.org/1999/xlink" viewBox="0 0 500 500" version="1.1" xmlns:svgjs="http://svgjs.com/svgjs"><style>svg#freepik_stories-firmware:not(.animated) .animable {opacity: 0;}svg#freepik_stories-firmware.animated #elrt5acped9ul {animation: 1.6s 1 forwards cubic-bezier(.36,-0.01,.5,1.38) slideUp;animation-delay: 0s;}svg#freepik_stories-firmware.animated #elp0eerxoah6b {animation: 1.6s 1 forwards cubic-bezier(.36,-0.01,.5,1.38) slideUp;animation-delay: 0.03018867924528302s;opacity: 0}svg#freepik_stories-firmware.animated #eljb06vf2816m {animation: 1.6s 1 forwards cubic-bezier(.36,-0.01,.5,1.38) slideUp;animation-delay: 0.06037735849056604s;opacity: 0}svg#freepik_stories-firmware.animated #el63ir3fnuiew {animation: 1.6s 1 forwards cubic-bezier(.36,-0.01,.5,1.38) slideUp;animation-delay: 0.09056603773584906s;opacity: 0}svg#freepik_stories-firmware.animated #elzu3l8x8ors9 {animation: 1.6s 1 forwards cubic-bezier(.36,-0.01,.5,1.38) slideUp;animation-delay: 0.12075471698113208s;opacity: 0}svg#freepik_stories-firmware.animated #elnxclcxk9tnp {animation: 1.6s 1 forwards cubic-bezier(.36,-0.01,.5,1.38) slideUp;animation-delay: 0.1509433962264151s;opacity: 0}svg#freepik_stories-firmware.animated #elz7nppj2et6d {animation: 1.6s 1 forwards cubic-bezier(.36,-0.01,.5,1.38) slideUp;animation-delay: 0.18113207547169813s;opacity: 0}svg#freepik_stories-firmware.animated #elnzb6irvt3te {animation: 1.6s 1 forwards cubic-bezier(.36,-0.01,.5,1.38) slideUp;animation-delay: 0.21132075471698114s;opacity: 0}svg#freepik_stories-firmware.animated #el5aprv721ahw {animation: 1.6s 1 forwards cubic-bezier(.36,-0.01,.5,1.38) slideUp;animation-delay: 0.24150943396226415s;opacity: 0}svg#freepik_stories-firmware.animated #el8r1d8kur4a7 {animation: 1.6s 1 forwards cubic-bezier(.36,-0.01,.5,1.38) slideUp;animation-delay: 0.27169811320754716s;opacity: 0}svg#freepik_stories-firmware.animated #elqgca70t28nr {animation: 1.6s 1 forwards cubic-bezier(.36,-0.01,.5,1.38) slideUp;animation-delay: 0.3018867924528302s;opacity: 0}svg#freepik_stories-firmware.animated #el4goz0horb7u {animation: 1.6s 1 forwards cubic-bezier(.36,-0.01,.5,1.38) slideUp;animation-delay: 0.3320754716981132s;opacity: 0}svg#freepik_stories-firmware.animated #elj8g67fryezo {animation: 1.6s 1 forwards cubic-bezier(.36,-0.01,.5,1.38) slideUp;animation-delay: 0.36226415094339626s;opacity: 0}svg#freepik_stories-firmware.animated #el43smce3vd27 {animation: 1.6s 1 forwards cubic-bezier(.36,-0.01,.5,1.38) slideUp;animation-delay: 0.39245283018867927s;opacity: 0}svg#freepik_stories-firmware.animated #elgjg5yka5jcu {animation: 1.6s 1 forwards cubic-bezier(.36,-0.01,.5,1.38) slideUp;animation-delay: 0.4226415094339623s;opacity: 0}svg#freepik_stories-firmware.animated #elihzxhplos1 {animation: 1.6s 1 forwards cubic-bezier(.36,-0.01,.5,1.38) slideUp;animation-delay: 0.4528301886792453s;opacity: 0}svg#freepik_stories-firmware.animated #elt1g5lttxdx {animation: 1.6s 1 forwards cubic-bezier(.36,-0.01,.5,1.38) slideUp;animation-delay: 0.4830188679245283s;opacity: 0}svg#freepik_stories-firmware.animated #elz3e4h6to5r {animation: 1.6s 1 forwards cubic-bezier(.36,-0.01,.5,1.38) slideUp;animation-delay: 0.5132075471698113s;opacity: 0}svg#freepik_stories-firmware.animated #elfzx7hws6etj {animation: 1.6s 1 forwards cubic-bezier(.36,-0.01,.5,1.38) slideUp;animation-delay: 0.5433962264150943s;opacity: 0}svg#freepik_stories-firmware.animated #elme3vq8szdkc {animation: 1.6s 1 forwards cubic-bezier(.36,-0.01,.5,1.38) slideUp;animation-delay: 0.5735849056603773s;opacity: 0}svg#freepik_stories-firmware.animated #el28zqyrfr14h {animation: 1.6s 1 forwards cubic-bezier(.36,-0.01,.5,1.38) slideUp;animation-delay: 0.6037735849056604s;opacity: 0}svg#freepik_stories-firmware.animated #el94kpg7l4al {animation: 1.6s 1 forwards cubic-bezier(.36,-0.01,.5,1.38) slideUp;animation-delay: 0.6339622641509434s;opacity: 0}svg#freepik_stories-firmware.animated #elrcm3cjcf9k {animation: 1.6s 1 forwards cubic-bezier(.36,-0.01,.5,1.38) slideUp;animation-delay: 0.6641509433962264s;opacity: 0}svg#freepik_stories-firmware.animated #elh5vmkbyryt9 {animation: 1.6s 1 forwards cubic-bezier(.36,-0.01,.5,1.38) slideUp;animation-delay: 0.6943396226415094s;opacity: 0}svg#freepik_stories-firmware.animated #el2eznw06rw3f {animation: 1.6s 1 forwards cubic-bezier(.36,-0.01,.5,1.38) slideUp;animation-delay: 0.7245283018867925s;opacity: 0}svg#freepik_stories-firmware.animated #el1gi3f5b1w42 {animation: 1.6s 1 forwards cubic-bezier(.36,-0.01,.5,1.38) slideUp;animation-delay: 0.7547169811320755s;opacity: 0}svg#freepik_stories-firmware.animated #elashe4iitpvb {animation: 1.6s 1 forwards cubic-bezier(.36,-0.01,.5,1.38) slideUp;animation-delay: 0.7849056603773585s;opacity: 0}svg#freepik_stories-firmware.animated #elzdo63y37dp9 {animation: 1.6s 1 forwards cubic-bezier(.36,-0.01,.5,1.38) slideUp;animation-delay: 0.8150943396226416s;opacity: 0}svg#freepik_stories-firmware.animated #el2o64i5f92cl {animation: 1.6s 1 forwards cubic-bezier(.36,-0.01,.5,1.38) slideUp;animation-delay: 0.8452830188679246s;opacity: 0}svg#freepik_stories-firmware.animated #elunvazx0687m {animation: 1.6s 1 forwards cubic-bezier(.36,-0.01,.5,1.38) slideUp;animation-delay: 0.8754716981132076s;opacity: 0}svg#freepik_stories-firmware.animated #el7zfuqwonpgj {animation: 1.6s 1 forwards cubic-bezier(.36,-0.01,.5,1.38) slideUp;animation-delay: 0.9056603773584906s;opacity: 0}svg#freepik_stories-firmware.animated #el3y4e557487p {animation: 1.6s 1 forwards cubic-bezier(.36,-0.01,.5,1.38) slideUp;animation-delay: 0.9358490566037736s;opacity: 0}svg#freepik_stories-firmware.animated #el5ofb82ls2u {animation: 1.6s 1 forwards cubic-bezier(.36,-0.01,.5,1.38) slideUp;animation-delay: 0.9660377358490566s;opacity: 0}svg#freepik_stories-firmware.animated #el9c03u59ida5 {animation: 1.6s 1 forwards cubic-bezier(.36,-0.01,.5,1.38) slideUp;animation-delay: 0.9962264150943396s;opacity: 0}svg#freepik_stories-firmware.animated #el46huh6jlc77 {animation: 1.6s 1 forwards cubic-bezier(.36,-0.01,.5,1.38) slideUp;animation-delay: 1.0264150943396226s;opacity: 0}svg#freepik_stories-firmware.animated #elg7wjjkxmxcw {animation: 1.6s 1 forwards cubic-bezier(.36,-0.01,.5,1.38) slideUp;animation-delay: 1.0566037735849056s;opacity: 0}svg#freepik_stories-firmware.animated #eliolj4zsb4b {animation: 1.6s 1 forwards cubic-bezier(.36,-0.01,.5,1.38) slideUp;animation-delay: 1.0867924528301887s;opacity: 0}svg#freepik_stories-firmware.animated #elqmhqpq7nva {animation: 1.6s 1 forwards cubic-bezier(.36,-0.01,.5,1.38) slideUp;animation-delay: 1.1169811320754717s;opacity: 0}svg#freepik_stories-firmware.animated #el8llpk4qt6rs {animation: 1.6s 1 forwards cubic-bezier(.36,-0.01,.5,1.38) slideUp;animation-delay: 1.1471698113207547s;opacity: 0}svg#freepik_stories-firmware.animated #ellt9y2ye5t4l {animation: 1.6s 1 forwards cubic-bezier(.36,-0.01,.5,1.38) slideUp;animation-delay: 1.1773584905660377s;opacity: 0}svg#freepik_stories-firmware.animated #elc6ubgf038u {animation: 1.6s 1 forwards cubic-bezier(.36,-0.01,.5,1.38) slideUp;animation-delay: 1.2075471698113207s;opacity: 0}svg#freepik_stories-firmware.animated #el5e3q3zog7au {animation: 1.6s 1 forwards cubic-bezier(.36,-0.01,.5,1.38) slideUp;animation-delay: 1.2377358490566037s;opacity: 0}svg#freepik_stories-firmware.animated #elc6y8uva4zvn {animation: 1.6s 1 forwards cubic-bezier(.36,-0.01,.5,1.38) slideUp;animation-delay: 1.2679245283018867s;opacity: 0}svg#freepik_stories-firmware.animated #eljxlojcnsf6e {animation: 1.6s 1 forwards cubic-bezier(.36,-0.01,.5,1.38) slideUp;animation-delay: 1.2981132075471697s;opacity: 0}svg#freepik_stories-firmware.animated #elxxr6i97knk {animation: 1.6s 1 forwards cubic-bezier(.36,-0.01,.5,1.38) slideUp;animation-delay: 1.3283018867924528s;opacity: 0}svg#freepik_stories-firmware.animated #el4jk5yay4z9a {animation: 1.6s 1 forwards cubic-bezier(.36,-0.01,.5,1.38) slideUp;animation-delay: 1.3584905660377358s;opacity: 0}svg#freepik_stories-firmware.animated #el6kqafo2wi4u {animation: 1.6s 1 forwards cubic-bezier(.36,-0.01,.5,1.38) slideUp;animation-delay: 1.3886792452830188s;opacity: 0}svg#freepik_stories-firmware.animated #el7xfsod9n6w3 {animation: 1.6s 1 forwards cubic-bezier(.36,-0.01,.5,1.38) slideUp;animation-delay: 1.4188679245283018s;opacity: 0}svg#freepik_stories-firmware.animated #elomg83ffkxgc {animation: 1.6s 1 forwards cubic-bezier(.36,-0.01,.5,1.38) slideUp;animation-delay: 1.449056603773585s;opacity: 0}svg#freepik_stories-firmware.animated #el4brje67sdgo {animation: 1.6s 1 forwards cubic-bezier(.36,-0.01,.5,1.38) slideUp;animation-delay: 1.479245283018868s;opacity: 0}svg#freepik_stories-firmware.animated #elkb19supdvxi {animation: 1.6s 1 forwards cubic-bezier(.36,-0.01,.5,1.38) slideUp;animation-delay: 1.509433962264151s;opacity: 0}svg#freepik_stories-firmware.animated #elbpam6wm69ml {animation: 1.6s 1 forwards cubic-bezier(.36,-0.01,.5,1.38) slideUp;animation-delay: 1.539622641509434s;opacity: 0}svg#freepik_stories-firmware.animated #el7kfjtb2ypcj {animation: 1.6s 1 forwards cubic-bezier(.36,-0.01,.5,1.38) slideUp;animation-delay: 1.569811320754717s;opacity: 0}svg#freepik_stories-firmware.animated #freepik--device-1--inject-135 {animation: 1.6s 1 forwards cubic-bezier(.36,-0.01,.5,1.38) slideUp,3s Infinite  linear shake;animation-delay: 0s,1.6s;}svg#freepik_stories-firmware.animated #freepik--device-2--inject-135 {animation: 1s 1 forwards cubic-bezier(.36,-0.01,.5,1.38) slideDown;animation-delay: 0s;}svg#freepik_stories-firmware.animated #freepik--Character--inject-135 {animation: 1s 1 forwards cubic-bezier(.36,-0.01,.5,1.38) slideLeft;animation-delay: 0s;}            @keyframes slideUp {                0% {                    opacity: 0;                    transform: translateY(30px);                }                100% {                    opacity: 1;                    transform: inherit;                }            }                    @keyframes shake {                10%, 90% {                    transform: translate3d(-1px, 0, 0);                  }                  20%, 80% {                    transform: translate3d(2px, 0, 0);                  }                  30%, 50%, 70% {                    transform: translate3d(-4px, 0, 0);                  }                  40%, 60% {                    transform: translate3d(4px, 0, 0);                  }            }                    @keyframes slideDown {                0% {                    opacity: 0;                    transform: translateY(-30px);                }                100% {                    opacity: 1;                    transform: translateY(0);                }            }                    @keyframes slideLeft {                0% {                    opacity: 0;                    transform: translateX(-30px);                }                100% {                    opacity: 1;                    transform: translateX(0);                }            }        </style><g id="freepik--background-simple--inject-135" class="animable" style="transform-origin: 238.507px 248.88px;"><path d="M390.92,156s-22.17-50.36-71.13-57.82-83.15,28.91-119.18,47.57c-18.87,9.76-40.42,6-60.45,10.7C76.12,171.58,52,266.3,78.67,320.16c23.09,46.63,63.74,70.87,125.64,76.47s105.31,12.12,160.74-33.57S416.79,222.24,390.92,156Z" style="fill: rgb(0, 255, 136); transform-origin: 238.507px 248.88px;" id="ela7swxjopc2j" class="animable"></path><g id="elwx86nt5hfl"><path d="M390.92,156s-22.17-50.36-71.13-57.82-83.15,28.91-119.18,47.57c-18.87,9.76-40.42,6-60.45,10.7C76.12,171.58,52,266.3,78.67,320.16c23.09,46.63,63.74,70.87,125.64,76.47s105.31,12.12,160.74-33.57S416.79,222.24,390.92,156Z" style="fill: rgb(255, 255, 255); opacity: 0.6; transform-origin: 238.507px 248.88px;" class="animable"></path></g></g><g id="freepik--Plant--inject-135" class="animable" style="transform-origin: 436.055px 349.716px;"><path d="M451.77,309s.77-2.81.8-3c.29-2.13-.39-6.43-2.56-7.47a2.85,2.85,0,0,0-3.88,1.71c-.58,1.6.16,3.56,1,4.91C448.19,306.74,451.77,309,451.77,309Z" style="fill: rgb(0, 255, 136); transform-origin: 449.278px 303.639px;" id="elk3oo2dcqvec" class="animable"></path><path d="M464.4,293.66c-2.4-.25-5.25,3-6.12,5-.08.17-1,3-.91,3h.05c-.45.51-.93,1.07-1.45,1.69-.93,1.15-2,2.46-3,4a51,51,0,0,0-3.14,5,37,37,0,0,0-2.68,6l0,.08c0-.71,0-2.68,0-2.83-.28-2.14-2.07-6.1-4.44-6.54a2.86,2.86,0,0,0-3.29,2.68c-.14,1.7,1.09,3.4,2.29,4.47,1.35,1.21,5.1,2.37,5.4,2.47a52,52,0,0,0-1.58,6.54c-.23,1.29-.42,2.6-.6,3.91,0-.61,0-1.16,0-1.23-.28-2.14-2.07-6.1-4.44-6.54a2.85,2.85,0,0,0-3.28,2.69c-.14,1.69,1.09,3.39,2.28,4.46s4.4,2.15,5.25,2.42c-.07.5-.13,1-.19,1.51-.29,2.42-.57,4.83-.92,7.19-.12.83-.27,1.65-.41,2.46,0-.54,0-1,0-1.07-.28-2.13-2.07-6.09-4.44-6.53a2.86,2.86,0,0,0-3.29,2.68c-.14,1.7,1.09,3.4,2.29,4.47s4.09,2,5.09,2.36c-.18.83-.35,1.67-.56,2.46-.15.55-.26,1.08-.45,1.61s-.34,1.06-.51,1.59c-.36,1-.73,2-1.11,3-.25.67-.51,1.31-.77,1.95.13-.83.35-2.45.35-2.59a11,11,0,0,0-1.48-5.39,3.33,3.33,0,0,0,0-.63,2.86,2.86,0,0,0-3.49-2.42c-2.33.62-3.8,4.71-3.91,6.86,0,.13.07,1.51.14,2.38-.12-.51-.22-1-.35-1.52-.25-1-.52-2.05-.81-3.15q-.24-.78-.48-1.59c-.15-.54-.38-1.08-.57-1.63-.46-1.26-1-2.51-1.54-3.76.9-.22,4.09-1,5.37-2s2.63-2.58,2.61-4.28A2.86,2.86,0,0,0,432,331.9c-2.39.26-4.47,4.08-4.91,6.19,0,.13-.17,1.68-.23,2.53-.34-.75-.68-1.5-1-2.25-1.07-2.16-2.22-4.3-3.36-6.45-.35-.66-.69-1.32-1-2,.32-.08,4.13-1,5.57-2.06,1.27-1,2.63-2.58,2.61-4.28a2.85,2.85,0,0,0-3.08-2.92c-2.39.26-4.47,4.08-4.91,6.18,0,.16-.23,2.39-.25,3-.76-1.45-1.5-2.91-2.17-4.37a51.72,51.72,0,0,1-2.35-6.08c.15,0,4.13-.94,5.6-2.06,1.28-1,2.63-2.58,2.62-4.28a2.85,2.85,0,0,0-3.08-2.92c-2.4.26-4.48,4.07-4.91,6.18,0,.14-.18,1.84-.24,2.64l-.14,0a37.51,37.51,0,0,1-1.22-6.44c-.14-1.19-.2-2.34-.23-3.47.76-.09,4.22-.55,5.66-1.42s2.89-2.27,3.07-4a2.86,2.86,0,0,0-2.74-3.24c-2.41,0-4.9,3.56-5.56,5.61,0,.11-.28,1.28-.45,2.14,0-.51,0-1,0-1.51,0-1.83.12-3.49.23-5,.08-.84.16-1.6.24-2.31.7-.48,3.49-2.44,4.34-3.85s1.52-3.35.9-4.93A2.86,2.86,0,0,0,417,289c-2.14,1.11-2.7,5.42-2.35,7.54,0,.19.84,3,.88,3l0,0c-.09.68-.19,1.4-.27,2.2-.15,1.48-.3,3.15-.34,5a49.82,49.82,0,0,0,.14,5.91,37,37,0,0,0,1.09,6.52l0,.08c-.38-.6-1.5-2.23-1.6-2.34-1.41-1.63-5.08-3.95-7.3-3a2.85,2.85,0,0,0-1.26,4.06c.81,1.49,2.78,2.22,4.37,2.46,1.79.26,5.57-.84,5.87-.93a49.2,49.2,0,0,0,2.28,6.34c.52,1.2,1.08,2.4,1.66,3.59-.34-.51-.65-1-.7-1-1.41-1.63-5.09-3.95-7.31-3a2.85,2.85,0,0,0-1.26,4.05c.82,1.5,2.78,2.23,4.37,2.46s4.85-.63,5.7-.87c.23.45.45.91.68,1.36,1.09,2.18,2.19,4.35,3.21,6.51.35.76.68,1.52,1,2.28-.31-.45-.57-.82-.62-.87-1.41-1.63-5.08-4-7.3-3a2.85,2.85,0,0,0-1.26,4.06c.82,1.49,2.78,2.22,4.37,2.45s4.53-.55,5.55-.83c.31.79.62,1.58.89,2.36.17.54.37,1,.51,1.59s.3,1.08.45,1.6c.25,1,.51,2.1.72,3.11.16.7.29,1.37.43,2-.35-.76-1.06-2.23-1.13-2.35-1.15-1.82-4.43-4.67-6.77-4.07a2.85,2.85,0,0,0-1.86,3.81c.59,1.6,2.41,2.62,3.95,3.09,1.69.52,5.44.05,5.91,0,.22,1.12.43,2.21.61,3.24.63,3.58,1,6.58,1.26,8.69.05.37.08.7.12,1h-7.26l2.24,43.66H440L442.19,367h-6.76l.15-.31c.93-1.93,2.21-4.71,3.6-8.11.44-1.07.89-2.22,1.34-3.41.46.09,4.17.85,5.9.45,1.56-.35,3.46-1.24,4.16-2.79A2.85,2.85,0,0,0,449,348.9c-2.28-.76-5.77,1.83-7.05,3.56-.07.1-.77,1.3-1.19,2.07.18-.49.36-1,.54-1.46.37-1,.7-2,1.06-3.08l.48-1.59c.17-.53.28-1.11.43-1.67.31-1.31.56-2.64.79-4,.87.32,4,1.4,5.59,1.29s3.61-.7,4.54-2.13a2.85,2.85,0,0,0-1-4.13c-2.14-1.11-6,.93-7.51,2.45-.09.09-1.06,1.3-1.58,2,.12-.81.26-1.63.36-2.45.29-2.39.52-4.82.76-7.24.07-.74.15-1.48.23-2.22.31.12,4,1.48,5.78,1.35,1.6-.11,3.61-.7,4.54-2.12a2.86,2.86,0,0,0-1-4.14c-2.14-1.1-6,.93-7.51,2.45-.11.12-1.51,1.86-1.84,2.32.17-1.62.36-3.24.61-4.83a49.22,49.22,0,0,1,1.39-6.37c.14.06,4,1.5,5.81,1.37,1.6-.11,3.61-.7,4.54-2.13a2.84,2.84,0,0,0-1-4.13c-2.14-1.11-6,.93-7.5,2.45-.1.1-1.17,1.43-1.66,2.07l-.12-.06a36.36,36.36,0,0,1,2.53-6.05c.54-1.07,1.13-2.06,1.72-3,.68.34,3.83,1.87,5.5,1.94s3.67-.3,4.75-1.62a2.84,2.84,0,0,0-.5-4.21c-2-1.34-6,.27-7.73,1.61-.09.07-.94.92-1.55,1.54.28-.43.55-.87.82-1.28,1-1.52,2-2.84,2.93-4,.53-.66,1-1.25,1.47-1.79.85,0,4.26-.12,5.75-.82s3.12-2,3.47-3.62A2.86,2.86,0,0,0,464.4,293.66ZM437.87,358c-1.45,3.33-2.78,6-3.74,7.94-.19.38-.37.72-.53,1h-.16c-.05-.37-.1-.77-.16-1.23-.29-2.12-.75-5.14-1.47-8.74-.22-1.14-.48-2.35-.76-3.59a30.62,30.62,0,0,0,3.29-1.55,21.28,21.28,0,0,0,4.81,3.1C438.72,356.05,438.29,357.08,437.87,358Z" style="fill: rgb(0, 255, 136); transform-origin: 436.167px 349.716px;" id="elfpmum2pyae" class="animable"></path><path d="M409,308.06c1.73.76,6,.66,6,.66s-.91-2.77-1-2.93c-.93-2-3.86-5.15-6.25-4.83a2.86,2.86,0,0,0-2.29,3.58C405.82,306.19,407.51,307.42,409,308.06Z" style="fill: rgb(0, 255, 136); transform-origin: 410.179px 304.831px;" id="elt56snya2rd" class="animable"></path><g id="el1n9kyqdjxxu"><path d="M409,308.06c1.73.76,6,.66,6,.66s-.91-2.77-1-2.93c-.93-2-3.86-5.15-6.25-4.83a2.86,2.86,0,0,0-2.29,3.58C405.82,306.19,407.51,307.42,409,308.06Z" style="fill: rgb(255, 255, 255); opacity: 0.3; transform-origin: 410.179px 304.831px;" class="animable"></path></g><g id="el9vkwgpuivrr"><path d="M451.77,309s.77-2.81.8-3c.29-2.13-.39-6.43-2.56-7.47a2.85,2.85,0,0,0-3.88,1.71c-.58,1.6.16,3.56,1,4.91C448.19,306.74,451.77,309,451.77,309Z" style="fill: rgb(255, 255, 255); opacity: 0.3; transform-origin: 449.278px 303.639px;" class="animable"></path></g><g id="el8ry6x8lodha"><path d="M416.32,319.39a49.2,49.2,0,0,0,2.28,6.34c.52,1.2,1.08,2.4,1.66,3.59-.34-.51-.65-1-.7-1-1.41-1.63-5.09-3.95-7.31-3a2.85,2.85,0,0,0-1.26,4.05c.82,1.5,2.78,2.23,4.37,2.46s4.85-.63,5.7-.87c.23.45.45.91.68,1.36,1.09,2.18,2.19,4.35,3.21,6.51.35.76.68,1.52,1,2.28-.31-.45-.57-.82-.62-.87-1.41-1.63-5.08-4-7.3-3a2.85,2.85,0,0,0-1.26,4.06c.82,1.49,2.78,2.22,4.37,2.45s4.53-.55,5.55-.83c.31.79.62,1.58.89,2.36.17.54.37,1,.51,1.59s.3,1.08.45,1.6c.25,1,.51,2.1.72,3.11.16.7.29,1.37.43,2-.35-.76-1.06-2.23-1.13-2.35-1.15-1.82-4.43-4.67-6.77-4.07a2.85,2.85,0,0,0-1.86,3.81c.59,1.6,2.41,2.62,3.95,3.09,1.69.52,5.44.05,5.91,0,.22,1.12.43,2.21.61,3.24.63,3.58,1,6.58,1.26,8.69.05.37.08.7.12,1h-7.26l2.24,43.66H440L442.19,367h-6.76l.15-.31c.93-1.93,2.21-4.71,3.6-8.11.44-1.07.89-2.22,1.34-3.41.46.09,4.17.85,5.9.45,1.56-.35,3.46-1.24,4.16-2.79A2.85,2.85,0,0,0,449,348.9c-2.28-.76-5.77,1.83-7.05,3.56-.07.1-.77,1.3-1.19,2.07.18-.49.36-1,.54-1.46.37-1,.7-2,1.06-3.08l.48-1.59c.17-.53.28-1.11.43-1.67.31-1.31.56-2.64.79-4,.87.32,4,1.4,5.59,1.29s3.61-.7,4.54-2.13a2.85,2.85,0,0,0-1-4.13c-2.14-1.11-6,.93-7.51,2.45-.09.09-1.06,1.3-1.58,2,.12-.81.26-1.63.36-2.45.29-2.39.52-4.82.76-7.24.07-.74.15-1.48.23-2.22.31.12,4,1.48,5.78,1.35,1.6-.11,3.61-.7,4.54-2.12a2.86,2.86,0,0,0-1-4.14c-2.14-1.1-6,.93-7.51,2.45-.11.12-1.51,1.86-1.84,2.32.17-1.62.36-3.24.61-4.83a49.22,49.22,0,0,1,1.39-6.37c.14.06,4,1.5,5.81,1.37,1.6-.11,3.61-.7,4.54-2.13a2.84,2.84,0,0,0-1-4.13c-2.14-1.11-6,.93-7.5,2.45-.1.1-1.17,1.43-1.66,2.07l-.12-.06a36.36,36.36,0,0,1,2.53-6.05c.54-1.07,1.13-2.06,1.72-3,.68.34,3.83,1.87,5.5,1.94s3.67-.3,4.75-1.62a2.84,2.84,0,0,0-.5-4.21c-2-1.34-6,.27-7.73,1.61-.09.07-.94.92-1.55,1.54.28-.43.55-.87.82-1.28,1-1.52,2-2.84,2.93-4,.53-.66,1-1.25,1.47-1.79.85,0,4.26-.12,5.75-.82s3.12-2,3.47-3.62a2.86,2.86,0,0,0-2.38-3.52c-2.4-.25-5.25,3-6.12,5-.08.17-1,3-.91,3h.05c-.45.51-.93,1.07-1.45,1.69-.93,1.15-2,2.46-3,4a51,51,0,0,0-3.14,5,37,37,0,0,0-2.68,6l0,.08c0-.71,0-2.68,0-2.83-.28-2.14-2.07-6.1-4.44-6.54a2.86,2.86,0,0,0-3.29,2.68c-.14,1.7,1.09,3.4,2.29,4.47,1.35,1.21,5.1,2.37,5.4,2.47a52,52,0,0,0-1.58,6.54c-.23,1.29-.42,2.6-.6,3.91,0-.61,0-1.16,0-1.23-.28-2.14-2.07-6.1-4.44-6.54a2.85,2.85,0,0,0-3.28,2.69c-.14,1.69,1.09,3.39,2.28,4.46s4.4,2.15,5.25,2.42c-.07.5-.13,1-.19,1.51-.29,2.42-.57,4.83-.92,7.19-.12.83-.27,1.65-.41,2.46,0-.54,0-1,0-1.07-.28-2.13-2.07-6.09-4.44-6.53a2.86,2.86,0,0,0-3.29,2.68c-.14,1.7,1.09,3.4,2.29,4.47s4.09,2,5.09,2.36c-.18.83-.35,1.67-.56,2.46-.15.55-.26,1.08-.45,1.61s-.34,1.06-.51,1.59c-.36,1-.73,2-1.11,3-.25.67-.51,1.31-.77,1.95.13-.83.35-2.45.35-2.59a11,11,0,0,0-1.48-5.39,3.33,3.33,0,0,0,0-.63,2.86,2.86,0,0,0-3.49-2.42c-2.33.62-3.8,4.71-3.91,6.86,0,.13.07,1.51.14,2.38-.12-.51-.22-1-.35-1.52-.25-1-.52-2.05-.81-3.15q-.24-.78-.48-1.59c-.15-.54-.38-1.08-.57-1.63-.46-1.26-1-2.51-1.54-3.76.9-.22,4.09-1,5.37-2s2.63-2.58,2.61-4.28A2.86,2.86,0,0,0,432,331.9c-2.39.26-4.47,4.08-4.91,6.19,0,.13-.17,1.68-.23,2.53-.34-.75-.68-1.5-1-2.25-1.07-2.16-2.22-4.3-3.36-6.45-.35-.66-.69-1.32-1-2,.32-.08,4.13-1,5.57-2.06,1.27-1,2.63-2.58,2.61-4.28a2.85,2.85,0,0,0-3.08-2.92c-2.39.26-4.47,4.08-4.91,6.18,0,.16-.23,2.39-.25,3-.76-1.45-1.5-2.91-2.17-4.37a51.72,51.72,0,0,1-2.35-6.08c.15,0,4.13-.94,5.6-2.06,1.28-1,2.63-2.58,2.62-4.28a2.85,2.85,0,0,0-3.08-2.92c-2.4.26-4.48,4.07-4.91,6.18,0,.14-.18,1.84-.24,2.64l-.14,0a37.51,37.51,0,0,1-1.22-6.44c-.14-1.19-.2-2.34-.23-3.47.76-.09,4.22-.55,5.66-1.42s2.89-2.27,3.07-4a2.86,2.86,0,0,0-2.74-3.24c-2.41,0-4.9,3.56-5.56,5.61,0,.11-.28,1.28-.45,2.14,0-.51,0-1,0-1.51,0-1.83.12-3.49.23-5,.08-.84.16-1.6.24-2.31.7-.48,3.49-2.44,4.34-3.85s1.52-3.35.9-4.93A2.86,2.86,0,0,0,417,289c-2.14,1.11-2.7,5.42-2.35,7.54,0,.19.84,3,.88,3l0,0c-.09.68-.19,1.4-.27,2.2-.15,1.48-.3,3.15-.34,5a49.82,49.82,0,0,0,.14,5.91,37,37,0,0,0,1.09,6.52l0,.08c-.38-.6-1.5-2.23-1.6-2.34-1.41-1.63-5.08-3.95-7.3-3a2.85,2.85,0,0,0-1.26,4.06c.81,1.49,2.78,2.22,4.37,2.46C412.24,320.58,416,319.48,416.32,319.39Zm18,32.51a21.28,21.28,0,0,0,4.81,3.1c-.43,1.05-.86,2.08-1.28,3-1.45,3.33-2.78,6-3.74,7.94-.19.38-.37.72-.53,1h-.16c-.05-.37-.1-.77-.16-1.23-.29-2.12-.75-5.14-1.47-8.74-.22-1.14-.48-2.35-.76-3.59A30.62,30.62,0,0,0,434.34,351.9Z" style="fill: rgb(255, 255, 255); opacity: 0.3; transform-origin: 436.159px 349.661px;" class="animable"></path></g></g><g id="freepik--device-1--inject-135" class="animable animator-active" style="transform-origin: 154.905px 275px;"><polyline points="148.72 246.63 173.48 246.63 184.39 238.2 227.49 238.2" style="fill: none; stroke: rgb(38, 50, 56); stroke-linecap: round; stroke-linejoin: round; transform-origin: 188.105px 242.415px;" id="elrt5acped9ul" class="animable"></polyline><line x1="147.23" y1="265.48" x2="268.66" y2="265.48" style="fill: none; stroke: rgb(38, 50, 56); stroke-linecap: round; stroke-linejoin: round; transform-origin: 207.945px 265.48px;" id="elp0eerxoah6b" class="animable"></line><polyline points="148.72 284.83 166.04 284.83 175.96 294.75 223.52 294.75 246.34 307.64 259.73 307.64" style="fill: none; stroke: rgb(38, 50, 56); stroke-linecap: round; stroke-linejoin: round; transform-origin: 204.225px 296.235px;" id="eljb06vf2816m" class="animable"></polyline><polyline points="148.22 303.18 156.12 303.18 166.78 313.84 193.76 313.84 204.3 303.3 225.01 303.3" style="fill: none; stroke: rgb(38, 50, 56); stroke-linecap: round; stroke-linejoin: round; transform-origin: 186.615px 308.51px;" id="el63ir3fnuiew" class="animable"></polyline><polyline points="165.54 265.48 177.2 253.83 228.48 253.83" style="fill: none; stroke: rgb(38, 50, 56); stroke-linecap: round; stroke-linejoin: round; transform-origin: 197.01px 259.655px;" id="elzu3l8x8ors9" class="animable"></polyline><line x1="166.04" y1="284.83" x2="229.48" y2="284.83" style="fill: none; stroke: rgb(38, 50, 56); stroke-linecap: round; stroke-linejoin: round; transform-origin: 197.76px 284.83px;" id="elnxclcxk9tnp" class="animable"></line><rect x="66.07" y="220.35" width="2.94" height="13.24" style="fill: rgb(255, 255, 255); stroke: rgb(38, 50, 56); stroke-linecap: round; stroke-linejoin: round; transform-origin: 67.54px 226.97px;" id="elz7nppj2et6d" class="animable"></rect><rect x="64.3" y="229.58" width="6.47" height="13.24" style="fill: rgb(255, 255, 255); stroke: rgb(38, 50, 56); stroke-linecap: round; stroke-linejoin: round; transform-origin: 67.535px 236.2px;" id="elnzb6irvt3te" class="animable"></rect><rect x="84.9" y="220.35" width="2.94" height="13.24" style="fill: rgb(255, 255, 255); stroke: rgb(38, 50, 56); stroke-linecap: round; stroke-linejoin: round; transform-origin: 86.37px 226.97px;" id="el5aprv721ahw" class="animable"></rect><rect x="83.14" y="229.58" width="6.47" height="13.24" style="fill: rgb(255, 255, 255); stroke: rgb(38, 50, 56); stroke-linecap: round; stroke-linejoin: round; transform-origin: 86.375px 236.2px;" id="el8r1d8kur4a7" class="animable"></rect><rect x="103.74" y="220.35" width="2.94" height="13.24" style="fill: rgb(255, 255, 255); stroke: rgb(38, 50, 56); stroke-linecap: round; stroke-linejoin: round; transform-origin: 105.21px 226.97px;" id="elqgca70t28nr" class="animable"></rect><rect x="101.97" y="229.58" width="6.47" height="13.24" style="fill: rgb(255, 255, 255); stroke: rgb(38, 50, 56); stroke-linecap: round; stroke-linejoin: round; transform-origin: 105.205px 236.2px;" id="el4goz0horb7u" class="animable"></rect><rect x="122.58" y="220.35" width="2.94" height="13.24" style="fill: rgb(255, 255, 255); stroke: rgb(38, 50, 56); stroke-linecap: round; stroke-linejoin: round; transform-origin: 124.05px 226.97px;" id="elj8g67fryezo" class="animable"></rect><rect x="120.81" y="229.58" width="6.47" height="13.24" style="fill: rgb(255, 255, 255); stroke: rgb(38, 50, 56); stroke-linecap: round; stroke-linejoin: round; transform-origin: 124.045px 236.2px;" id="el43smce3vd27" class="animable"></rect><g id="elgjg5yka5jcu"><rect x="122.58" y="316.41" width="2.94" height="13.24" style="fill: rgb(255, 255, 255); stroke: rgb(38, 50, 56); stroke-linecap: round; stroke-linejoin: round; transform-origin: 124.05px 323.03px; transform: rotate(180deg);" class="animable"></rect></g><g id="elihzxhplos1"><rect x="120.81" y="307.17" width="6.47" height="13.24" style="fill: rgb(255, 255, 255); stroke: rgb(38, 50, 56); stroke-linecap: round; stroke-linejoin: round; transform-origin: 124.045px 313.79px; transform: rotate(180deg);" class="animable"></rect></g><g id="elt1g5lttxdx"><rect x="103.74" y="316.41" width="2.94" height="13.24" style="fill: rgb(255, 255, 255); stroke: rgb(38, 50, 56); stroke-linecap: round; stroke-linejoin: round; transform-origin: 105.21px 323.03px; transform: rotate(180deg);" class="animable"></rect></g><g id="elz3e4h6to5r"><rect x="101.97" y="307.17" width="6.47" height="13.24" style="fill: rgb(255, 255, 255); stroke: rgb(38, 50, 56); stroke-linecap: round; stroke-linejoin: round; transform-origin: 105.205px 313.79px; transform: rotate(180deg);" class="animable"></rect></g><g id="elfzx7hws6etj"><rect x="84.9" y="316.41" width="2.94" height="13.24" style="fill: rgb(255, 255, 255); stroke: rgb(38, 50, 56); stroke-linecap: round; stroke-linejoin: round; transform-origin: 86.37px 323.03px; transform: rotate(180deg);" class="animable"></rect></g><g id="elme3vq8szdkc"><rect x="83.14" y="307.17" width="6.47" height="13.24" style="fill: rgb(255, 255, 255); stroke: rgb(38, 50, 56); stroke-linecap: round; stroke-linejoin: round; transform-origin: 86.375px 313.79px; transform: rotate(180deg);" class="animable"></rect></g><g id="el28zqyrfr14h"><rect x="66.07" y="316.41" width="2.94" height="13.24" style="fill: rgb(255, 255, 255); stroke: rgb(38, 50, 56); stroke-linecap: round; stroke-linejoin: round; transform-origin: 67.54px 323.03px; transform: rotate(180deg);" class="animable"></rect></g><g id="el94kpg7l4al"><rect x="64.3" y="307.17" width="6.47" height="13.24" style="fill: rgb(255, 255, 255); stroke: rgb(38, 50, 56); stroke-linecap: round; stroke-linejoin: round; transform-origin: 67.535px 313.79px; transform: rotate(180deg);" class="animable"></rect></g><g id="elrcm3cjcf9k"><rect x="142.35" y="240.12" width="2.94" height="13.24" style="fill: rgb(255, 255, 255); stroke: rgb(38, 50, 56); stroke-linecap: round; stroke-linejoin: round; transform-origin: 143.82px 246.74px; transform: rotate(90deg);" class="animable"></rect></g><g id="elh5vmkbyryt9"><rect x="131.35" y="240.12" width="6.47" height="13.24" style="fill: rgb(255, 255, 255); stroke: rgb(38, 50, 56); stroke-linecap: round; stroke-linejoin: round; transform-origin: 134.585px 246.74px; transform: rotate(90deg);" class="animable"></rect></g><g id="el2eznw06rw3f"><rect x="142.35" y="258.96" width="2.94" height="13.24" style="fill: rgb(255, 255, 255); stroke: rgb(38, 50, 56); stroke-linecap: round; stroke-linejoin: round; transform-origin: 143.82px 265.58px; transform: rotate(90deg);" class="animable"></rect></g><g id="el1gi3f5b1w42"><rect x="131.35" y="258.96" width="6.47" height="13.24" style="fill: rgb(255, 255, 255); stroke: rgb(38, 50, 56); stroke-linecap: round; stroke-linejoin: round; transform-origin: 134.585px 265.58px; transform: rotate(90deg);" class="animable"></rect></g><g id="elashe4iitpvb"><rect x="142.35" y="277.8" width="2.94" height="13.24" style="fill: rgb(255, 255, 255); stroke: rgb(38, 50, 56); stroke-linecap: round; stroke-linejoin: round; transform-origin: 143.82px 284.42px; transform: rotate(90deg);" class="animable"></rect></g><g id="elzdo63y37dp9"><rect x="131.35" y="277.8" width="6.47" height="13.24" style="fill: rgb(255, 255, 255); stroke: rgb(38, 50, 56); stroke-linecap: round; stroke-linejoin: round; transform-origin: 134.585px 284.42px; transform: rotate(90deg);" class="animable"></rect></g><g id="el2o64i5f92cl"><rect x="142.35" y="296.63" width="2.94" height="13.24" style="fill: rgb(255, 255, 255); stroke: rgb(38, 50, 56); stroke-linecap: round; stroke-linejoin: round; transform-origin: 143.82px 303.25px; transform: rotate(90deg);" class="animable"></rect></g><g id="elunvazx0687m"><rect x="131.35" y="296.63" width="6.47" height="13.24" style="fill: rgb(255, 255, 255); stroke: rgb(38, 50, 56); stroke-linecap: round; stroke-linejoin: round; transform-origin: 134.585px 303.25px; transform: rotate(90deg);" class="animable"></rect></g><g id="el7zfuqwonpgj"><rect x="46.3" y="296.63" width="2.94" height="13.24" style="fill: rgb(255, 255, 255); stroke: rgb(38, 50, 56); stroke-linecap: round; stroke-linejoin: round; transform-origin: 47.77px 303.25px; transform: rotate(-90deg);" class="animable"></rect></g><g id="el3y4e557487p"><rect x="53.76" y="296.63" width="6.47" height="13.24" style="fill: rgb(255, 255, 255); stroke: rgb(38, 50, 56); stroke-linecap: round; stroke-linejoin: round; transform-origin: 56.995px 303.25px; transform: rotate(-90deg);" class="animable"></rect></g><g id="el5ofb82ls2u"><rect x="46.3" y="277.8" width="2.94" height="13.24" style="fill: rgb(255, 255, 255); stroke: rgb(38, 50, 56); stroke-linecap: round; stroke-linejoin: round; transform-origin: 47.77px 284.42px; transform: rotate(-90deg);" class="animable"></rect></g><g id="el9c03u59ida5"><rect x="53.76" y="277.8" width="6.47" height="13.24" style="fill: rgb(255, 255, 255); stroke: rgb(38, 50, 56); stroke-linecap: round; stroke-linejoin: round; transform-origin: 56.995px 284.42px; transform: rotate(-90deg);" class="animable"></rect></g><g id="el46huh6jlc77"><rect x="46.3" y="258.96" width="2.94" height="13.24" style="fill: rgb(255, 255, 255); stroke: rgb(38, 50, 56); stroke-linecap: round; stroke-linejoin: round; transform-origin: 47.77px 265.58px; transform: rotate(-90deg);" class="animable"></rect></g><g id="elg7wjjkxmxcw"><rect x="53.76" y="258.96" width="6.47" height="13.24" style="fill: rgb(255, 255, 255); stroke: rgb(38, 50, 56); stroke-linecap: round; stroke-linejoin: round; transform-origin: 56.995px 265.58px; transform: rotate(-90deg);" class="animable"></rect></g><g id="eliolj4zsb4b"><rect x="46.3" y="240.12" width="2.94" height="13.24" style="fill: rgb(255, 255, 255); stroke: rgb(38, 50, 56); stroke-linecap: round; stroke-linejoin: round; transform-origin: 47.77px 246.74px; transform: rotate(-90deg);" class="animable"></rect></g><g id="elqmhqpq7nva"><rect x="53.76" y="240.12" width="6.47" height="13.24" style="fill: rgb(255, 255, 255); stroke: rgb(38, 50, 56); stroke-linecap: round; stroke-linejoin: round; transform-origin: 56.995px 246.74px; transform: rotate(-90deg);" class="animable"></rect></g><rect x="58.86" y="238.02" width="73.86" height="73.86" rx="7.43" style="fill: rgb(0, 255, 136); stroke: rgb(38, 50, 56); stroke-linecap: round; stroke-linejoin: round; transform-origin: 95.79px 274.95px;" id="el8llpk4qt6rs" class="animable"></rect><path d="M72.12,283.4a3.65,3.65,0,1,1,0-7.3h48.76a3.65,3.65,0,1,1,0,7.3Z" style="fill: rgb(255, 255, 255); transform-origin: 96.5px 279.75px;" id="ellt9y2ye5t4l" class="animable"></path><path d="M120.88,276.6a3.15,3.15,0,1,1,0,6.3H72.12a3.15,3.15,0,1,1,0-6.3h48.76m0-1H72.12a4.15,4.15,0,1,0,0,8.3h48.76a4.15,4.15,0,1,0,0-8.3Z" style="fill: rgb(38, 50, 56); transform-origin: 96.5px 279.75px;" id="elc6ubgf038u" class="animable"></path><path d="M109.7,276.6H73.3c-2.39,0-4.34,1.41-4.34,3.15s2,3.15,4.34,3.15h36.4Z" style="fill: rgb(38, 50, 56); stroke: rgb(38, 50, 56); stroke-linecap: round; stroke-linejoin: round; transform-origin: 89.33px 279.75px;" id="el5e3q3zog7au" class="animable"></path><path d="M74.49,268.9v-2.85h1.17v2.8c0,1,.42,1.36,1.13,1.36s1.13-.39,1.13-1.36v-2.8h1.16v2.85a2.3,2.3,0,1,1-4.59,0Z" style="fill: rgb(38, 50, 56); transform-origin: 76.785px 268.701px;" id="elc6y8uva4zvn" class="animable"></path><path d="M84.64,267.9c0,1.13-.84,1.83-2.2,1.83h-1v1.4H80.25v-5.08h2.19C83.8,266.05,84.64,266.76,84.64,267.9Zm-1.18,0c0-.56-.37-.89-1.08-.89h-1v1.76h1C83.09,268.77,83.46,268.45,83.46,267.9Z" style="fill: rgb(38, 50, 56); transform-origin: 82.445px 268.59px;" id="eljxlojcnsf6e" class="animable"></path><path d="M85.48,266.05h2.31a2.55,2.55,0,1,1,0,5.08H85.48Zm2.25,4.11a1.57,1.57,0,1,0,0-3.14H86.66v3.14Z" style="fill: rgb(38, 50, 56); transform-origin: 88.0228px 268.59px;" id="elxxr6i97knk" class="animable"></path><path d="M94.74,270H92.38l-.44,1.09H90.73L93,266.05h1.16l2.27,5.08H95.19Zm-.37-.89-.8-1.94-.81,1.94Z" style="fill: rgb(38, 50, 56); transform-origin: 93.58px 268.59px;" id="el4jk5yay4z9a" class="animable"></path><path d="M97.75,267H96.13v-1h4.42v1H98.93v4.12H97.75Z" style="fill: rgb(38, 50, 56); transform-origin: 98.34px 268.56px;" id="el6kqafo2wi4u" class="animable"></path><path d="M101.18,266.05h1.18v5.08h-1.18Z" style="fill: rgb(38, 50, 56); transform-origin: 101.77px 268.59px;" id="el7xfsod9n6w3" class="animable"></path><path d="M108.21,266.05v5.08h-1l-2.53-3.08v3.08h-1.16v-5.08h1l2.52,3.08v-3.08Z" style="fill: rgb(38, 50, 56); transform-origin: 105.865px 268.59px;" id="elomg83ffkxgc" class="animable"></path><path d="M112.85,268.51h1.07v2.06a3.49,3.49,0,0,1-2,.64,2.62,2.62,0,1,1,0-5.24,2.73,2.73,0,0,1,2.13.87l-.76.7A1.72,1.72,0,0,0,112,267a1.62,1.62,0,1,0,0,3.24,1.87,1.87,0,0,0,.91-.21Z" style="fill: rgb(38, 50, 56); transform-origin: 111.671px 268.589px;" id="el4brje67sdgo" class="animable"></path><path d="M114.73,270.48a.7.7,0,1,1,1.4,0,.7.7,0,1,1-1.4,0Z" style="fill: rgb(38, 50, 56); transform-origin: 115.43px 270.48px;" id="elkb19supdvxi" class="animable"></path><path d="M116.63,270.48a.7.7,0,1,1,1.4,0,.7.7,0,1,1-1.4,0Z" style="fill: rgb(38, 50, 56); transform-origin: 117.33px 270.48px;" id="elbpam6wm69ml" class="animable"></path><path d="M118.53,270.48a.68.68,0,0,1,.7-.7.69.69,0,0,1,.71.7.7.7,0,0,1-.71.71A.69.69,0,0,1,118.53,270.48Z" style="fill: rgb(38, 50, 56); transform-origin: 119.235px 270.485px;" id="el7kfjtb2ypcj" class="animable"></path></g><g id="freepik--device-2--inject-135" class="animable" style="transform-origin: 235.665px 275px;"><rect x="191.45" y="139.33" width="143.65" height="271.34" rx="7.67" style="fill: rgb(255, 255, 255); stroke: rgb(38, 50, 56); stroke-linecap: round; stroke-linejoin: round; transform-origin: 263.275px 275px;" id="el0mhpcqnrdx8" class="animable"></rect><rect x="197.84" y="169.12" width="130.88" height="211.75" style="fill: rgb(38, 50, 56); transform-origin: 263.28px 274.995px;" id="el31ndi7ca52d" class="animable"></rect><g style="clip-path: url(&quot;#freepik--clip-path--inject-135&quot;); transform-origin: 232.475px 308.57px;" id="eld3coukpjhe" class="animable"><g id="elooi5byohgbf"><polygon points="328.72 309.73 206.71 380.88 328.72 380.88 328.72 309.73" style="fill: rgb(255, 255, 255); opacity: 0.3; transform-origin: 267.715px 345.305px;" class="animable"></polygon></g><polyline points="137.72 246.63 167.48 246.63 178.39 238.2 227.49 238.2" style="fill: none; stroke: rgb(255, 255, 255); stroke-linecap: round; stroke-linejoin: round; transform-origin: 182.605px 242.415px;" id="elk55oa510wy" class="animable"></polyline><polyline points="228.47 265.47 237.01 256.92 260.64 256.92" style="fill: none; stroke: rgb(255, 255, 255); stroke-linecap: round; stroke-linejoin: round; transform-origin: 244.555px 261.195px;" id="elhk2t75hbohr" class="animable"></polyline><line x1="136.23" y1="265.48" x2="285.2" y2="265.48" style="fill: none; stroke: rgb(255, 255, 255); stroke-linecap: round; stroke-linejoin: round; transform-origin: 210.715px 265.48px;" id="elkz9uvvo97ye" class="animable"></line><circle cx="227.49" cy="238.2" r="1.94" style="fill: rgb(255, 255, 255); transform-origin: 227.49px 238.2px;" id="ellfnqn87em" class="animable"></circle><circle cx="285.43" cy="265.11" r="1.94" style="fill: rgb(255, 255, 255); transform-origin: 285.43px 265.11px;" id="el6q18eybso8p" class="animable"></circle><path d="M263.05,256.55a1.94,1.94,0,1,0-1.94,1.94A1.94,1.94,0,0,0,263.05,256.55Z" style="fill: rgb(255, 255, 255); transform-origin: 261.11px 256.55px;" id="eldijqyxo2qp9" class="animable"></path><circle cx="228.7" cy="253.55" r="1.94" style="fill: rgb(255, 255, 255); transform-origin: 228.7px 253.55px;" id="eli1ckxnfd4f" class="animable"></circle><circle cx="229.91" cy="284.43" r="1.94" style="fill: rgb(255, 255, 255); transform-origin: 229.91px 284.43px;" id="elhckev9ip8a" class="animable"></circle><path d="M227.75,303a1.94,1.94,0,1,0-1.94,1.94A1.94,1.94,0,0,0,227.75,303Z" style="fill: rgb(255, 255, 255); transform-origin: 225.81px 303px;" id="elaxi9wgb0s7n" class="animable"></path><circle cx="260.26" cy="307.37" r="1.94" style="fill: rgb(255, 255, 255); transform-origin: 260.26px 307.37px;" id="el9ro5ebl9n5p" class="animable"></circle><polyline points="137.72 284.83 160.04 284.83 169.96 294.75 223.52 294.75 246.34 307.64 259.73 307.64" style="fill: none; stroke: rgb(255, 255, 255); stroke-linecap: round; stroke-linejoin: round; transform-origin: 198.725px 296.235px;" id="elhj805zux7rr" class="animable"></polyline><polyline points="137.22 303.18 150.12 303.18 160.78 313.84 193.76 313.84 204.3 303.3 225.01 303.3" style="fill: none; stroke: rgb(255, 255, 255); stroke-linecap: round; stroke-linejoin: round; transform-origin: 181.115px 308.51px;" id="eldn209coxfz" class="animable"></polyline><polyline points="159.54 265.48 171.2 253.83 228.48 253.83" style="fill: none; stroke: rgb(255, 255, 255); stroke-linecap: round; stroke-linejoin: round; transform-origin: 194.01px 259.655px;" id="elfbid1ni5ra8" class="animable"></polyline><line x1="160.04" y1="284.83" x2="229.48" y2="284.83" style="fill: none; stroke: rgb(255, 255, 255); stroke-linecap: round; stroke-linejoin: round; transform-origin: 194.76px 284.83px;" id="el9j66hhzicoe" class="animable"></line></g><rect x="197.84" y="169.12" width="130.88" height="211.75" style="fill: none; stroke: rgb(38, 50, 56); stroke-linecap: round; stroke-linejoin: round; transform-origin: 263.28px 274.995px;" id="el5mpfb20t24h" class="animable"></rect><path d="M277.51,154.3H249.05a1.94,1.94,0,0,1-1.94-1.94h0a1.94,1.94,0,0,1,1.94-1.94h28.46a1.94,1.94,0,0,1,1.94,1.94h0A1.94,1.94,0,0,1,277.51,154.3Z" style="fill: rgb(38, 50, 56); transform-origin: 263.28px 152.36px;" id="elxnflw1x5ods" class="animable"></path><path d="M271,392.83a7.76,7.76,0,1,0-7.76,7.76A7.77,7.77,0,0,0,271,392.83Z" style="fill: rgb(255, 255, 255); stroke: rgb(38, 50, 56); stroke-linecap: round; stroke-linejoin: round; stroke-width: 0.704333px; transform-origin: 263.24px 392.83px;" id="elos8ip8i51sl" class="animable"></path><rect x="259.34" y="388.9" width="7.87" height="7.87" style="fill: rgb(38, 50, 56); transform-origin: 263.275px 392.835px;" id="elrt6ddb4ezj" class="animable"></rect></g><g id="freepik--Character--inject-135" class="animable" style="transform-origin: 386.313px 295.805px;"><path d="M381.71,248.08l-.23,9.91a113.8,113.8,0,0,1-11.25-2c-4.42-1.13-16.24-6.52-16.24-6.52l-2.49,4s8,7.36,17.52,11a68.23,68.23,0,0,0,18,4.18s3.08-.27,4-11.19,2.88-21.47.21-24.27S383,235.12,381.71,248.08Z" style="fill: rgb(0, 255, 136); stroke: rgb(38, 50, 56); stroke-linecap: round; stroke-linejoin: round; transform-origin: 372.04px 250.532px;" id="elc4fx6ro9t47" class="animable"></path><path d="M370.23,256c-4.42-1.13-16.24-6.52-16.24-6.52h0s-.93-3.68-1.82-7.63-3.09-4.24-3.78-6.21-2.93-.81-2.24,1.17a5.4,5.4,0,0,0,1.9,2.74l.64,4.18-.83-.55a32.76,32.76,0,0,0-2.56-2.44c-.23-.16-.53-.09-.87.13l-1.77-1.2s-2.33,5.34-.89,6.6a20.26,20.26,0,0,0,2.09,1.44,76.22,76.22,0,0,0,7.64,5.82s8,7.36,17.52,11l1,.36a20.42,20.42,0,0,0,2.13-8.45C371.47,256.31,370.83,256.16,370.23,256Z" style="fill: rgb(255, 255, 255); stroke: rgb(38, 50, 56); stroke-linecap: round; stroke-linejoin: round; transform-origin: 356.725px 249.756px;" id="eltif2majzq5" class="animable"></path><path d="M339.52,237.65s-1.07,3.65-.39,6.12,8.9,7.31,8.9,7.31-2.46-10.11-2.93-10.85S340.59,233.5,339.52,237.65Z" style="fill: rgb(255, 255, 255); stroke: rgb(38, 50, 56); stroke-linecap: round; stroke-linejoin: round; transform-origin: 343.467px 243.639px;" id="el9d7rgzn1pb4" class="animable"></path><polygon points="336.96 234.12 346.52 249.04 351.05 245.38 342.35 231.58 336.96 234.12" style="fill: rgb(38, 50, 56); stroke: rgb(38, 50, 56); stroke-linecap: round; stroke-linejoin: round; transform-origin: 344.005px 240.31px;" id="eluvzu3bktj2r" class="animable"></polygon><path d="M375.71,204s-6.12,0-8.43-4.48,6.12-14,15.7-17.39,19.5,5.33,22,12,7.68,14,14.55,18.3,19.66,17.91,15.22,25.4-10.15,10.19-5.43,15.59,5.85,11.78.25,16.5-12.37,6.08-19.17,3.21-14.23-14.16-12.87-22.89-2.91-29.25-8.49-36.56S379.47,202.52,375.71,204Z" style="fill: rgb(38, 50, 56); stroke: rgb(38, 50, 56); stroke-linecap: round; stroke-linejoin: round; transform-origin: 401.28px 228px;" id="elgobjhqtixb8" class="animable"></path><path d="M385.77,216.68a12.71,12.71,0,0,1,2,7.25c-.35,3.81-6.81,10.29-9.36,16.11s-1.32,10,.08,12.33,3.87,6.21,3.89,8.24.49,5.7.49,5.7,6.62,2.62,20.54-1.55c0,0,4.23-30.72,4.2-34.76s-5.2-7.15-7.77-7.79-5.42-2.52-6.24-4.61a18.35,18.35,0,0,1-1.05-3.94Z" style="fill: rgb(0, 255, 136); stroke: rgb(38, 50, 56); stroke-linecap: round; stroke-linejoin: round; transform-origin: 392.27px 240.391px;" id="el1w1nl8ki6w5" class="animable"></path><path d="M398.31,221.7c-2.09-.87-4.08-2.41-4.74-4.1a18.35,18.35,0,0,1-1.05-3.94l-6.75,3a12.71,12.71,0,0,1,2,7.25c-.16,1.74-1.59,4-3.34,6.55.94,2.64,2,3.31,5.78,1.08A17.81,17.81,0,0,0,398.31,221.7Z" style="fill: rgb(255, 255, 255); stroke: rgb(38, 50, 56); stroke-linecap: round; stroke-linejoin: round; transform-origin: 391.37px 223.272px;" id="elh1tvnkl7to8" class="animable"></path><path d="M375.27,195.08s-2.19,5-1.5,7.9,1.51,10.24,3.07,12.18,5.46,8.45,8.4,7.76,8.5-10.16,8.57-13.22-2-9.69-7.83-14.1S375.23,192.35,375.27,195.08Z" style="fill: rgb(255, 255, 255); stroke: rgb(38, 50, 56); stroke-linecap: round; stroke-linejoin: round; transform-origin: 383.724px 207.814px;" id="eluw54l58atvq" class="animable"></path><path d="M377.36,206.37s.92.49.86,3-1.47,3.68-.85,3.69a33.94,33.94,0,0,0,3.41-.54" style="fill: none; stroke: rgb(38, 50, 56); stroke-linecap: round; stroke-linejoin: round; stroke-width: 0.5px; transform-origin: 378.996px 209.715px;" id="el8m6hxa018x7" class="animable"></path><path d="M379.92,216.17s1.38.81,2.66-1.33" style="fill: none; stroke: rgb(38, 50, 56); stroke-linecap: round; stroke-linejoin: round; stroke-width: 0.5px; transform-origin: 381.25px 215.58px;" id="elhoci36ebapu" class="animable"></path><path d="M380.94,205.53l0,1.54s.9,1,2.79-.4" style="fill: none; stroke: rgb(38, 50, 56); stroke-linecap: round; stroke-linejoin: round; stroke-width: 0.5px; transform-origin: 382.335px 206.473px;" id="elo30sj95uw8a" class="animable"></path><path d="M375.65,207l-.19,1.7s.29.62,2-.57" style="fill: none; stroke: rgb(38, 50, 56); stroke-linecap: round; stroke-linejoin: round; stroke-width: 0.5px; transform-origin: 376.46px 207.931px;" id="el0e682z8mtwmg" class="animable"></path><path d="M379.13,203.47a3.44,3.44,0,0,1,3.88-.37" style="fill: none; stroke: rgb(38, 50, 56); stroke-linecap: round; stroke-linejoin: round; stroke-width: 0.5px; transform-origin: 381.07px 203.068px;" id="el71ctnqoinzo" class="animable"></path><path d="M376.47,204.8s-1.21-1-1.57,1" style="fill: none; stroke: rgb(38, 50, 56); stroke-linecap: round; stroke-linejoin: round; stroke-width: 0.5px; transform-origin: 375.685px 205.175px;" id="elma8ulo6n6zn" class="animable"></path><path d="M373.28,193.36s7.79,2.3,11.8,8.48,5.1,14.68,13.21,16.54S412.94,214,412.94,214s-8.33-5.22-13.22-12-10.11-12.65-14.7-13S374.13,191.82,373.28,193.36Z" style="fill: rgb(38, 50, 56); stroke: rgb(38, 50, 56); stroke-linecap: round; stroke-linejoin: round; transform-origin: 393.11px 203.85px;" id="elt74ojlvoc7" class="animable"></path><path d="M375.52,191.62a8,8,0,0,1,9.93-.29c5.35,3.83,7.39,16.07,12.74,19.9s21.5,5.78,23.1,16.61-7,13.91-5.58,21,9.22,6.71,10.31,13.26a9.23,9.23,0,0,1-4.08,9.49" style="fill: none; stroke: rgb(255, 255, 255); stroke-linecap: round; stroke-linejoin: round; stroke-width: 0.5px; transform-origin: 400.851px 230.667px;" id="el8pj8zjbyjym" class="animable"></path><path d="M378.52,188.79s8.51-8.19,17.09-1.26,6.91,19.73,11.86,21.78,19.18,10.05,21.57,20.2-11.42,13.57-7.44,20.05,13,9.45,10,15.62" style="fill: none; stroke: rgb(255, 255, 255); stroke-linecap: round; stroke-linejoin: round; stroke-width: 0.5px; transform-origin: 405.36px 224.963px;" id="elq23niakp28h" class="animable"></path><path d="M381.7,398.32s-2.32,4.49-4,5.95-6.37,3.22-6.68,4,.17,1.16,1.1,1.55,5.1.83,7.55-.33,3.59-2.86,4.46-3.36,3.48-.51,4.37-2.1-.36-5.39-.36-5.39Z" style="fill: rgb(0, 255, 136); stroke: rgb(38, 50, 56); stroke-linecap: round; stroke-linejoin: round; transform-origin: 379.873px 404.278px;" id="ellnfy5nd1r8" class="animable"></path><path d="M424.33,396.3s-.86,5-2.05,6.88-5.1,5-5.17,5.79.5,1,1.51,1.15,5.11-.75,7.1-2.58,2.57-3.81,3.25-4.55,3.17-1.53,3.53-3.32-2-5-2-5Z" style="fill: rgb(0, 255, 136); stroke: rgb(38, 50, 56); stroke-linecap: round; stroke-linejoin: round; transform-origin: 424.821px 402.403px;" id="elprm18gw1bt9" class="animable"></path><path d="M420.6,353.74c-2.63-7.94-6.7-14.54-7.3-19.25-1.62-12.67,1.7-29.08-.87-41.71-1.66-8.1-3.29-21.57-9.05-28,0,0-7,3.2-20.54,1.55,0,0-7.57,29.6-8.46,45.88s4.07,56.94,5.3,65.53,2,20.6,2,20.6l6.42.29s3.29-23.82,3.08-36.39c-.28-16.62-.95-31.4.2-37.36s1.06-21.15,1.06-21.15,1.7,9.83,2.8,15c0,0,1.58,17.45,3.21,22.26s25.95,55.09,25.95,55.09l6.12-1.4S423.24,361.67,420.6,353.74Z" style="fill: rgb(38, 50, 56); stroke: rgb(38, 50, 56); stroke-linecap: round; stroke-linejoin: round; transform-origin: 402.397px 331.705px;" id="elhnvxk4q2cmo" class="animable"></path><path d="M401.22,240.22,408,250.93l6.59,11.22s-4.29,15-6.91,23l6.8,2.45C426,275.71,424.42,262,425.05,261s-11.66-23.55-11.66-23.55-1.56-9-8-11.88S398,227,398,227" style="fill: rgb(0, 255, 136); stroke: rgb(38, 50, 56); stroke-linecap: round; stroke-linejoin: round; transform-origin: 411.537px 256.089px;" id="elhmypadtfh5" class="animable"></path><path d="M407.63,285.13l-6.22,13.44s-2.91.54-3.7,1.3-1.39,2.49-2.76,3.82.72,3.11.72,3.11l2-2.68-2,6.54a6.52,6.52,0,0,0,2.73-1.5c1.18-1.14,2.54-1.7,4.88-3.21s2.82-6.53,2.82-6.53l8.39-11.84Z" style="fill: rgb(255, 255, 255); stroke: rgb(38, 50, 56); stroke-linecap: round; stroke-linejoin: round; transform-origin: 404.487px 297.895px;" id="elht7fd968u5v" class="animable"></path></g><g id="freepik--Floor--inject-135" class="animable" style="transform-origin: 251.695px 410.67px;"><line x1="49.62" y1="410.67" x2="453.77" y2="410.67" style="fill: none; stroke: rgb(38, 50, 56); stroke-linecap: round; stroke-linejoin: round; transform-origin: 251.695px 410.67px;" id="elv3pjvvx8dol" class="animable"></line></g><defs>     <filter id="active" height="200%">         <feMorphology in="SourceAlpha" result="DILATED" operator="dilate" radius="2"></feMorphology>                <feFlood flood-color="#32DFEC" flood-opacity="1" result="PINK"></feFlood>        <feComposite in="PINK" in2="DILATED" operator="in" result="OUTLINE"></feComposite>        <feMerge>            <feMergeNode in="OUTLINE"></feMergeNode>            <feMergeNode in="SourceGraphic"></feMergeNode>        </feMerge>    </filter>    <filter id="hover" height="200%">        <feMorphology in="SourceAlpha" result="DILATED" operator="dilate" radius="2"></feMorphology>                <feFlood flood-color="#ff0000" flood-opacity="0.5" result="PINK"></feFlood>        <feComposite in="PINK" in2="DILATED" operator="in" result="OUTLINE"></feComposite>        <feMerge>            <feMergeNode in="OUTLINE"></feMergeNode>            <feMergeNode in="SourceGraphic"></feMergeNode>        </feMerge>            <feColorMatrix type="matrix" values="0   0   0   0   0                0   1   0   0   0                0   0   0   0   0                0   0   0   1   0 "></feColorMatrix>    </filter></defs><defs><clipPath id="freepik--clip-path--inject-135"><rect x="197.84" y="169.12" width="130.88" height="211.75" style="fill:#263238;stroke:#263238;stroke-linecap:round;stroke-linejoin:round"></rect></clipPath></defs></svg>